<svg xmlns="http://www.w3.org/2000/svg" aria-hidden="true" style="width:0;height:0;position:absolute;overflow:hidden"><defs><symbol id="icon-x-close" viewBox="0 0 32 32"><path d="M7.799 6.827c-.326.073-.712.408-.917.794-.096.182-.085.594.024.809.05.101 1.751 1.845 3.778 3.875l3.687 3.694-3.687 3.694c-2.027 2.031-3.728 3.775-3.778 3.875-.117.232-.118.629-.003.851.114.221.456.562.677.677.223.114.619.113.851-.003.101-.05 1.845-1.751 3.875-3.778L16 17.628l3.694 3.687c2.031 2.027 3.775 3.728 3.875 3.778.232.117.629.118.851.003.221-.114.562-.456.677-.677.114-.223.113-.619-.003-.851-.05-.101-1.751-1.845-3.778-3.875l-3.687-3.694 3.687-3.694c2.027-2.031 3.728-3.775 3.778-3.875.117-.232.118-.629.003-.851a2.07 2.07 0 0 0-.668-.671l-.009-.005c-.223-.114-.619-.113-.851.003-.101.05-1.845 1.751-3.875 3.778L16 14.371l-3.694-3.687c-2.031-2.027-3.765-3.721-3.853-3.765a.976.976 0 0 0-.661-.091l.006-.001z"/></symbol><symbol id="icon-flag" viewBox="0 0 41 32"><path fill="#fff" style="fill:#fff" d="M40.745 1.355H.311v30.09h40.434V1.355z"/><path fill="red" style="fill:red" d="M.311 1.355h40.434V16.4H.311V1.355z"/></symbol></defs></svg>