<svg aria-hidden="true" style="width:0;height:0;position:absolute;overflow:hidden" xmlns="http://www.w3.org/2000/svg"><defs><symbol id="icon-spoon" viewBox="0 0 32 32"><path fill="#fd9222" style="fill:var(--color1,#fd9222)" d="M15.452 14.106a5.154 5.154 0 0 1-1.177-3.282c0-4.324 5.181-8.642 10.362-8.642a5.183 5.183 0 0 1 5.181 5.182c0 5.182-4.318 10.364-8.646 10.364a5.15 5.15 0 0 1-3.281-1.177L5.133 29.312a1.73 1.73 0 0 1-2.445-2.445l12.764-12.761z"/></symbol><symbol id="icon-dollar" viewBox="0 0 32 32"><path fill="#fd9222" style="fill:var(--color1,#fd9222)" d="M16 .762C7.619.762.762 7.619.762 16S7.619 31.238 16 31.238 31.238 24.381 31.238 16 24.381.762 16 .762zm0 27.429c-6.705 0-12.191-5.486-12.191-12.19S9.295 3.81 16 3.81c6.705 0 12.19 5.486 12.19 12.191S22.704 28.191 16 28.191z"/><path fill="#fd9222" style="fill:var(--color1,#fd9222)" d="M17.981 14.476h-3.962c-.762 0-1.371-.61-1.371-1.371s.61-1.371 1.371-1.371h5.638c.914 0 1.524-.61 1.524-1.524s-.61-1.524-1.524-1.524h-2.133V7.315c0-.914-.61-1.524-1.524-1.524s-1.524.61-1.524 1.524v1.371h-.457c-2.438 0-4.419 1.981-4.419 4.419s1.981 4.419 4.419 4.419h3.809c.762 0 1.371.61 1.371 1.371s-.61 1.371-1.371 1.371H12.19c-.914 0-1.524.61-1.524 1.524s.61 1.524 1.524 1.524h2.286v1.371c0 .914.61 1.524 1.524 1.524s1.524-.61 1.524-1.524v-1.371h.457c2.438 0 4.419-1.981 4.419-4.419s-1.981-4.419-4.419-4.419z"/></symbol><symbol id="icon-chocolate-bar" viewBox="0 0 32 32"><path d="m13.822 2.413 7.527 7.536.08-.08a.856.856 0 0 1 1.184-.013l.873.873c.305.305.315.77.083 1.094l-.004.007-.143.192 6.16 6.16c.55.55.55 1.43 0 1.98l-9.43 9.43c-.55.55-1.43.55-1.98 0l-4.447-4.447a.853.853 0 0 1-.612.317.842.842 0 0 1-.644-.246l-2.6-2.6a.856.856 0 0 1-.013-1.184l.006-.007.077-.076-7.527-7.527c-.55-.55-.55-1.43 0-1.98l9.43-9.43c.55-.55 1.43-.55 1.98 0v.001zm6.582 8.48-1.756-1.755a.59.59 0 0 0-.85 0l-3.58 3.58a.621.621 0 0 0-.179.43.602.602 0 0 0 .179.43l1.749 1.749.61-.61-1.565-1.565 3.21-3.22 1.569 1.574.613-.613zm-5.076 5.072-1.754-1.754a.59.59 0 0 0-.85 0l-3.59 3.59c-.24.23-.24.61 0 .85l1.752 1.752.616-.616-1.57-1.564 3.22-3.21 1.564 1.563.612-.611zM8.822 8.193l3.58 3.58c.24.24.62.24.85-.01l3.58-3.58a.57.57 0 0 0 .18-.42h.01c0-.15-.06-.31-.18-.43l-3.58-3.58a.602.602 0 0 0-.86 0l-3.58 3.59c-.24.23-.24.61 0 .85zm-5.07 5.07 3.58 3.58c.24.24.62.24.85 0l3.58-3.58a.578.578 0 0 0 .18-.43h.01c0-.16-.06-.31-.18-.43l-3.58-3.58a.59.59 0 0 0-.85 0l-3.59 3.59c-.24.23-.24.61 0 .85zm6.933 8.754 2.362 2.363 9.636-13.04-.655-.655-11.343 11.332z"/><path fill="#fd9222" style="fill:var(--color1,#fd9222)" d="m13.822 2.413 7.527 7.536.08-.08a.856.856 0 0 1 1.184-.013l.873.873c.305.305.315.77.083 1.094l-.004.007-.143.192 6.16 6.16c.55.55.55 1.43 0 1.98l-9.43 9.43c-.55.55-1.43.55-1.98 0l-4.447-4.447a.853.853 0 0 1-.612.317.842.842 0 0 1-.644-.246l-2.6-2.6a.856.856 0 0 1-.013-1.184l.006-.007.077-.076-7.527-7.527c-.55-.55-.55-1.43 0-1.98l9.43-9.43c.55-.55 1.43-.55 1.98 0v.001zm6.582 8.48-1.756-1.755a.59.59 0 0 0-.85 0l-3.58 3.58a.621.621 0 0 0-.179.43.602.602 0 0 0 .179.43l1.749 1.749.61-.61-1.565-1.565 3.21-3.22 1.569 1.574.613-.613zm-5.076 5.072-1.754-1.754a.59.59 0 0 0-.85 0l-3.59 3.59c-.24.23-.24.61 0 .85l1.752 1.752.616-.616-1.57-1.564 3.22-3.21 1.564 1.563.612-.611zM8.822 8.193l3.58 3.58c.24.24.62.24.85-.01l3.58-3.58a.57.57 0 0 0 .18-.42h.01c0-.15-.06-.31-.18-.43l-3.58-3.58a.602.602 0 0 0-.86 0l-3.58 3.59c-.24.23-.24.61 0 .85zm-5.07 5.07 3.58 3.58c.24.24.62.24.85 0l3.58-3.58a.578.578 0 0 0 .18-.43h.01c0-.16-.06-.31-.18-.43l-3.58-3.58a.59.59 0 0 0-.85 0l-3.59 3.59c-.24.23-.24.61 0 .85zm6.933 8.754 2.362 2.363 9.636-13.04-.655-.655-11.343 11.332z"/></symbol></defs></svg>