<svg xmlns="http://www.w3.org/2000/svg" aria-hidden="true" style="width:0;height:0;position:absolute;overflow:hidden"><defs><symbol id="x-close" viewBox="0 0 24 24"><path d="M20.746 3.329a1 1 0 0 0-1.415 0l-7.294 7.294-7.294-7.294a1 1 0 1 0-1.414 1.414l7.294 7.294-7.294 7.294a1 1 0 0 0 1.414 1.415l7.294-7.295 7.294 7.295a1 1 0 0 0 1.415-1.415l-7.295-7.294 7.295-7.294a1 1 0 0 0 0-1.414Z"/></symbol><symbol id="icon-flag" viewBox="0 0 41 32"><path fill="#fff" style="fill:#fff" d="M40.745 1.355H.311v30.09h40.434V1.355z"/><path fill="red" style="fill:red" d="M.311 1.355h40.434V16.4H.311V1.355z"/></symbol></defs></svg>